<?xml version="1.0" standalone="no"?>
<!DOCTYPE svg PUBLIC "-//W3C//DTD SVG 20010904//EN"
 "http://www.w3.org/TR/2001/REC-SVG-20010904/DTD/svg10.dtd">
<svg version="1.0" xmlns="http://www.w3.org/2000/svg"
 width="493.000000pt" height="314.000000pt" viewBox="0 0 493.000000 314.000000"
 preserveAspectRatio="xMidYMid meet">

<g transform="translate(0.000000,314.000000) scale(0.100000,-0.100000)"
fill="#000000" stroke="none">
<path d="M2324 3022 c8 -14 -15 -21 -36 -11 -11 6 -19 5 -24 -3 -4 -6 -3 -9 2
-6 5 3 14 0 21 -7 13 -14 0 -41 -16 -31 -6 4 -9 11 -7 15 3 4 -1 8 -9 8 -11 0
-11 -5 -4 -19 13 -25 41 -19 54 10 10 22 25 30 25 14 0 -5 7 -9 15 -9 8 0 15
4 15 9 0 4 -7 8 -16 8 -8 0 -13 4 -9 9 3 5 0 13 -6 17 -7 4 -9 3 -5 -4z"/>
<path d="M2360 3026 c0 -2 6 -9 14 -15 10 -9 17 -7 27 6 13 16 12 17 -3 4 -12
-9 -18 -10 -18 -2 0 6 -4 11 -10 11 -5 0 -10 -2 -10 -4z"/>
<path d="M2635 2950 l-75 -58 68 -12 c37 -6 100 -22 141 -36 l74 -25 36 26
c63 44 86 64 81 68 -11 9 -117 56 -150 65 -19 6 -49 15 -67 20 -30 10 -37 7
-108 -48z"/>
<path d="M2156 2982 c-2 -4 -1 -14 5 -22 7 -12 9 -10 9 8 0 23 -5 28 -14 14z"/>
<path d="M3185 2970 c-3 -5 1 -10 9 -10 9 0 16 5 16 10 0 6 -4 10 -9 10 -6 0
-13 -4 -16 -10z"/>
<path d="M2214 2952 c10 -29 -12 -38 -23 -10 -9 21 -10 21 -10 3 -1 -34 14
-49 37 -36 21 11 20 45 0 57 -6 4 -8 -2 -4 -14z"/>
<path d="M3145 2941 c-3 -5 0 -13 6 -17 8 -5 9 -3 4 6 -6 10 -4 12 9 7 10 -4
15 -3 11 3 -8 13 -22 13 -30 1z"/>
<path d="M2139 2927 c-12 -9 -14 -18 -8 -35 5 -12 13 -22 19 -22 14 0 13 13
-2 28 -10 10 -10 15 2 22 8 5 12 11 10 14 -3 2 -12 -1 -21 -7z"/>
<path d="M3120 2921 c0 -6 4 -13 10 -16 6 -3 7 1 4 9 -7 18 -14 21 -14 7z"/>
<path d="M2080 2896 c0 -8 5 -18 10 -21 6 -3 10 -10 10 -16 0 -15 -22 -10 -36
9 -17 22 -18 1 -1 -22 12 -16 16 -17 34 -5 22 13 20 33 -4 57 -11 11 -13 11
-13 -2z"/>
<path d="M2937 2873 c-8 -18 -1 -38 16 -39 12 -1 13 -1 2 3 -8 2 -13 9 -9 14
3 5 11 6 17 2 7 -4 6 0 -2 10 -15 19 -18 20 -24 10z"/>
<path d="M2990 2870 c8 -5 20 -10 25 -10 6 0 3 5 -5 10 -8 5 -19 10 -25 10 -5
0 -3 -5 5 -10z"/>
<path d="M1990 2856 c0 -8 8 -24 18 -36 15 -19 22 -21 38 -12 17 10 16 11 -10
12 -25 0 -27 3 -22 25 5 18 2 25 -9 25 -8 0 -15 -6 -15 -14z"/>
<path d="M3015 2850 c-11 -5 -14 -9 -7 -9 7 -1 10 -5 7 -11 -3 -6 1 -7 9 -4 9
3 16 10 16 16 0 5 4 7 9 3 5 -3 12 -2 15 3 6 11 -24 12 -49 2z"/>
<path d="M2970 2820 c-8 -5 -12 -12 -9 -15 8 -8 39 5 39 16 0 11 -11 11 -30
-1z"/>
<path d="M1865 2711 c-3 -5 -2 -12 3 -15 5 -3 9 1 9 9 0 17 -3 19 -12 6z"/>
<path d="M3161 2672 l-45 -38 57 -67 c31 -36 63 -80 72 -96 13 -27 59 -65 53
-44 -2 5 9 22 25 38 15 16 27 26 27 20 0 -5 6 0 14 10 12 16 9 25 -26 76 -53
77 -107 139 -121 139 -7 0 -32 -17 -56 -38z"/>
<path d="M1646 2635 c-11 -8 -15 -15 -9 -15 7 0 15 5 18 10 4 6 11 7 17 4 7
-4 8 -2 4 4 -9 14 -7 15 -30 -3z"/>
<path d="M1587 2576 c-4 -10 -3 -15 3 -11 6 3 10 2 10 -3 0 -16 -13 -22 -26
-11 -9 7 -12 6 -10 -7 4 -24 20 -28 36 -9 9 11 10 22 3 37 -8 19 -10 20 -16 4z"/>
<path d="M1513 2510 c-24 -19 -32 -37 -10 -23 23 15 47 14 41 -2 -4 -8 -10
-15 -15 -15 -5 0 -9 -5 -9 -12 0 -6 9 -3 20 7 23 21 25 38 8 53 -9 7 -19 5
-35 -8z"/>
<path d="M2236 2416 c-115 -50 -211 -96 -213 -102 -2 -6 36 -27 84 -46 l88
-36 7 -125 c4 -75 13 -140 22 -162 73 -173 279 -220 407 -92 40 40 68 102 69
148 0 19 4 39 10 45 5 5 10 49 12 98 l3 89 67 28 c36 15 69 25 72 21 3 -3 6
-29 6 -57 0 -43 -4 -55 -22 -67 -19 -13 -23 -26 -26 -86 l-4 -72 51 0 51 0 0
70 c0 57 -4 73 -21 89 -18 17 -20 29 -18 91 l4 72 -205 89 c-113 49 -212 91
-220 93 -8 2 -109 -37 -224 -88z m424 -13 c110 -48 197 -90 193 -94 -5 -4 -95
-44 -202 -89 l-194 -81 -196 81 c-108 45 -199 85 -204 89 -6 6 371 178 395
180 4 1 97 -38 208 -86z m-239 -269 c36 -15 39 -14 157 35 66 28 123 51 126
51 3 0 6 -36 6 -80 l0 -79 -37 -11 c-21 -5 -80 -16 -131 -22 -94 -12 -192 -5
-284 22 l-38 11 0 79 0 79 83 -35 c45 -20 98 -42 118 -50z m478 2 c7 -8 11
-37 9 -68 -3 -52 -4 -53 -33 -53 -29 0 -30 2 -33 51 -2 37 2 56 13 68 20 20
29 20 44 2z m-604 -111 c76 -18 252 -19 328 -1 31 7 59 10 62 7 6 -10 -13 -89
-29 -120 -54 -102 -203 -148 -303 -92 -66 38 -133 142 -133 209 0 15 1 15 75
-3z"/>
<path d="M3337 2466 c-3 -8 -2 -18 3 -21 13 -8 24 15 12 27 -6 6 -11 4 -15 -6z"/>
<path d="M3471 2284 c0 -11 3 -14 6 -6 3 7 2 16 -1 19 -3 4 -6 -2 -5 -13z"/>
<path d="M3481 2244 c0 -11 3 -14 6 -6 3 7 2 16 -1 19 -3 4 -6 -2 -5 -13z"/>
<path d="M1477 2049 c-75 -59 -77 -62 -76 -102 0 -23 3 -49 7 -57 9 -18 32
-24 32 -8 0 6 3 8 7 5 3 -4 12 2 20 13 10 14 23 18 48 16 22 -1 35 2 35 10 0
7 -9 10 -22 8 -23 -4 -23 -4 -2 7 18 9 23 24 28 86 4 41 6 77 4 78 -2 2 -38
-23 -81 -56z"/>
<path d="M3463 1958 c-26 -24 -53 -48 -59 -54 -7 -6 -19 -46 -28 -90 -8 -43
-22 -100 -30 -126 -8 -27 -12 -48 -9 -48 3 0 35 26 72 58 67 60 99 83 88 65
-3 -5 -8 -21 -11 -36 -3 -15 -7 -37 -11 -50 -5 -19 -4 -20 5 -5 26 42 61 310
41 322 -6 4 -32 -12 -58 -36z"/>
<path d="M2332 1728 c-100 -38 -202 -171 -202 -263 l0 -25 330 0 330 0 -6 33
c-20 108 -96 206 -197 253 -68 31 -177 33 -255 2z m197 -4 c3 -3 -9 -19 -27
-36 l-32 -32 -35 34 c-25 25 -32 36 -22 42 11 8 107 2 116 -8z m-15 -45 l44
43 52 -28 c28 -15 63 -41 76 -57 29 -35 68 -110 78 -149 l6 -28 -310 0 -310 0
0 23 c0 36 45 119 86 161 22 22 61 50 89 62 l50 23 47 -46 48 -47 44 43z"/>
<path d="M3406 1509 c-19 -40 -34 -75 -31 -77 2 -2 20 28 40 68 20 40 34 74
32 76 -3 3 -21 -28 -41 -67z"/>
<path d="M1655 1440 c-21 -16 -41 -30 -45 -30 -17 0 -19 -34 -4 -58 9 -13 49
-59 90 -102 41 -42 74 -81 73 -86 0 -5 -43 -45 -94 -89 -88 -76 -106 -97 -87
-109 4 -3 53 35 108 85 81 72 104 88 124 84 19 -3 37 6 75 40 l50 45 -35 26
c-48 37 -167 161 -188 196 -9 15 -19 28 -23 28 -3 0 -23 -13 -44 -30z"/>
<path d="M3327 1373 c-97 -129 -165 -196 -273 -267 -103 -69 -207 -120 -264
-131 -3 -1 -30 -8 -60 -17 -30 -9 -79 -20 -108 -24 -29 -4 -50 -9 -48 -12 10
-9 156 19 229 44 224 76 431 236 552 427 28 43 11 31 -28 -20z"/>
<path d="M1991 1148 c15 -28 41 -48 53 -41 5 3 -2 11 -14 18 -15 8 -19 15 -11
19 6 4 8 12 5 18 -4 6 -10 5 -15 -3 -6 -10 -9 -11 -9 -1 0 6 -5 12 -10 12 -7
0 -6 -8 1 -22z"/>
<path d="M2100 1076 c0 -2 9 -6 20 -9 11 -3 18 -1 14 4 -5 9 -34 13 -34 5z"/>
<path d="M2635 1070 c-22 -5 -78 -11 -124 -14 l-83 -6 -65 -56 c-43 -38 -61
-60 -54 -67 5 -5 65 -11 133 -13 68 -2 110 0 94 4 -29 7 -29 7 57 80 48 40 87
75 87 78 0 2 -1 3 -2 3 -2 -1 -21 -5 -43 -9z"/>
<path d="M2024 1032 c3 -5 0 -13 -6 -15 -9 -4 -10 -6 -1 -6 17 -1 25 16 12 25
-7 4 -9 3 -5 -4z"/>
<path d="M2080 990 c0 -5 5 -10 11 -10 5 0 7 5 4 10 -3 6 -8 10 -11 10 -2 0
-4 -4 -4 -10z"/>
<path d="M719 537 c-56 -13 -101 -66 -107 -125 -9 -98 54 -166 153 -166 99 0
162 68 153 166 -9 93 -99 149 -199 125z m111 -32 c77 -40 80 -170 6 -219 -33
-21 -109 -21 -142 0 -73 48 -71 178 4 218 35 20 95 20 132 1z"/>
<path d="M316 521 c-44 -29 -66 -70 -66 -124 0 -81 35 -128 111 -148 37 -10
53 -10 89 2 24 8 46 20 48 28 4 11 0 12 -14 6 -11 -5 -45 -11 -77 -13 -54 -4
-59 -2 -92 31 -32 32 -35 40 -35 92 0 51 3 60 34 91 29 29 41 34 81 34 25 0
55 -5 66 -10 27 -15 47 -1 24 17 -29 20 -134 17 -169 -6z"/>
<path d="M1041 432 c5 -124 18 -154 76 -179 48 -19 98 -9 135 27 28 28 28 30
28 144 0 64 -4 116 -9 116 -5 0 -11 -47 -13 -104 -4 -126 -20 -159 -83 -164
-83 -7 -105 30 -105 174 0 80 -2 94 -16 94 -14 0 -16 -14 -13 -108z"/>
<path d="M1420 395 c0 -122 2 -145 15 -145 12 0 15 14 15 65 l0 65 43 0 c41 0
43 -2 81 -65 26 -44 44 -65 57 -65 17 0 14 8 -21 59 -22 33 -40 63 -40 66 0 4
14 18 30 32 29 24 37 53 24 88 -11 28 -60 45 -134 45 l-70 0 0 -145z m150 112
c17 -9 26 -22 28 -44 4 -41 -22 -59 -93 -62 l-55 -2 0 60 0 61 48 0 c26 0 58
-6 72 -13z"/>
<path d="M1785 520 c-22 -25 -24 -75 -3 -96 8 -8 39 -21 69 -29 53 -14 89 -43
89 -71 0 -8 -9 -23 -21 -35 -17 -17 -30 -20 -72 -17 -29 3 -60 8 -69 12 -13 6
-18 4 -18 -8 0 -20 72 -40 116 -32 53 11 84 41 84 86 0 46 -31 76 -89 86 -73
13 -102 52 -64 89 13 14 29 16 75 12 32 -3 58 -2 58 3 0 13 -29 20 -84 20 -40
0 -57 -5 -71 -20z"/>
<path d="M2090 395 l0 -145 95 0 c57 0 95 4 95 10 0 6 -33 10 -80 10 l-80 0 0
60 0 60 70 0 c40 0 70 4 70 10 0 6 -30 10 -70 10 l-70 0 0 55 0 55 75 0 c43 0
75 4 75 10 0 6 -37 10 -90 10 l-90 0 0 -145z"/>
<path d="M2453 520 c-44 -26 -63 -68 -63 -136 0 -52 3 -59 38 -94 28 -29 49
-40 82 -45 49 -7 129 13 120 30 -3 6 -9 8 -15 6 -5 -3 -35 -7 -66 -9 -51 -3
-60 -1 -92 27 -87 77 -36 221 79 221 25 0 54 -5 65 -10 11 -6 24 -8 31 -4 20
13 -36 33 -92 34 -37 0 -65 -6 -87 -20z"/>
<path d="M2760 395 c0 -122 2 -145 15 -145 12 0 15 14 15 65 l0 65 43 0 c42 0
44 -1 85 -65 23 -37 48 -65 58 -65 18 0 18 0 -43 90 -29 43 -28 44 1 58 31 14
48 62 32 93 -17 36 -53 49 -133 49 l-73 0 0 -145z m171 96 c25 -30 24 -37 -6
-67 -22 -21 -33 -25 -78 -22 l-52 3 -3 59 -3 58 62 -4 c49 -4 66 -9 80 -27z"/>
<path d="M3198 478 c-14 -35 -42 -100 -61 -145 -25 -58 -32 -83 -23 -83 8 0
23 23 35 50 l22 50 72 0 72 0 22 -50 c12 -28 27 -50 32 -50 17 0 14 10 -48
151 -71 163 -84 172 -123 77z m101 -95 c1 -9 -17 -13 -59 -13 -33 0 -60 2 -60
4 0 2 14 35 31 73 l31 68 28 -60 c16 -33 29 -66 29 -72z"/>
<path d="M3510 395 c0 -109 3 -145 13 -145 8 0 12 20 12 67 l0 68 68 3 c37 2
67 7 67 12 0 5 -30 10 -67 12 l-68 3 0 50 0 50 78 3 c108 4 97 22 -13 22 l-90
0 0 -145z"/>
<path d="M3800 530 c0 -5 20 -10 45 -10 l45 0 0 -135 c0 -113 2 -135 15 -135
13 0 15 22 15 135 l0 135 45 0 c25 0 45 5 45 10 0 6 -42 10 -105 10 -63 0
-105 -4 -105 -10z"/>
<path d="M4140 395 l0 -145 95 0 c57 0 95 4 95 10 0 6 -33 10 -80 10 l-80 0 0
60 0 60 65 0 c37 0 65 4 65 10 0 6 -28 10 -65 10 l-65 0 0 55 0 55 75 0 c43 0
75 4 75 10 0 6 -37 10 -90 10 l-90 0 0 -145z"/>
<path d="M4450 395 c0 -122 2 -145 15 -145 12 0 15 14 15 65 l0 65 43 0 c42 0
43 -1 82 -65 25 -40 47 -65 58 -65 14 0 10 12 -25 67 -30 47 -38 68 -29 71 29
10 51 43 51 77 0 52 -42 75 -137 75 l-73 0 0 -145z m171 96 c23 -29 23 -33 1
-61 -15 -18 -29 -23 -78 -24 l-59 -1 -3 59 -3 58 62 -4 c49 -4 66 -9 80 -27z"/>
</g>
</svg>
